<mxfile host="app.diagrams.net" agent="Mozilla/5.0 (Windows NT 10.0; Win64; x64) AppleWebKit/537.36 (KHTML, like Gecko) Chrome/138.0.0.0 Safari/537.36" version="28.0.4">
  <diagram name="Page-1" id="NqWaR27YgNzLd6aYCaXz">
    <mxGraphModel dx="786" dy="451" grid="1" gridSize="10" guides="1" tooltips="1" connect="1" arrows="1" fold="1" page="1" pageScale="1" pageWidth="1400" pageHeight="850" math="0" shadow="0">
      <root>
        <mxCell id="0" />
        <mxCell id="1" parent="0" />
        <mxCell id="uTUz2dnG5HgmsUnSwUd8-1" value="" style="rounded=1;whiteSpace=wrap;html=1;" parent="1" vertex="1">
          <mxGeometry x="615" y="25" width="135" height="175" as="geometry" />
        </mxCell>
        <mxCell id="uTUz2dnG5HgmsUnSwUd8-2" value="&lt;b&gt;&lt;font style=&quot;font-size: 16px;&quot;&gt;Prometheus Metrics&lt;/font&gt;&lt;/b&gt;" style="rounded=1;whiteSpace=wrap;html=1;fillColor=#d5e8d4;strokeColor=#82b366;" parent="1" vertex="1">
          <mxGeometry x="625" y="35" width="115" height="45" as="geometry" />
        </mxCell>
        <mxCell id="uTUz2dnG5HgmsUnSwUd8-3" value="&lt;b&gt;&lt;font style=&quot;font-size: 15px;&quot;&gt;Log Aggregation&lt;/font&gt;&lt;/b&gt;" style="rounded=1;whiteSpace=wrap;html=1;fillColor=#d5e8d4;strokeColor=#82b366;" parent="1" vertex="1">
          <mxGeometry x="625" y="85" width="115" height="45" as="geometry" />
        </mxCell>
        <mxCell id="uTUz2dnG5HgmsUnSwUd8-4" value="&lt;b&gt;&lt;font style=&quot;font-size: 16px;&quot;&gt;Health Checks&lt;/font&gt;&lt;/b&gt;" style="rounded=1;whiteSpace=wrap;html=1;fillColor=#d5e8d4;strokeColor=#82b366;" parent="1" vertex="1">
          <mxGeometry x="625" y="136" width="115" height="44" as="geometry" />
        </mxCell>
        <mxCell id="uTUz2dnG5HgmsUnSwUd8-6" value="" style="image;sketch=0;aspect=fixed;html=1;points=[];align=center;fontSize=12;image=img/lib/mscae/Azure_Database_for_PostgreSQL_servers.svg;" parent="1" vertex="1">
          <mxGeometry x="406" y="52" width="76" height="100" as="geometry" />
        </mxCell>
        <mxCell id="uTUz2dnG5HgmsUnSwUd8-7" value="&lt;font style=&quot;font-size: 20px;&quot;&gt;&lt;b&gt;Data Collection&lt;/b&gt;&lt;/font&gt;" style="text;html=1;align=center;verticalAlign=middle;resizable=0;points=[];autosize=1;strokeColor=none;fillColor=none;" parent="1" vertex="1">
          <mxGeometry x="369" y="12" width="170" height="40" as="geometry" />
        </mxCell>
        <mxCell id="uTUz2dnG5HgmsUnSwUd8-9" value="&lt;b&gt;&lt;font style=&quot;font-size: 20px;&quot;&gt;Data Processing&lt;/font&gt;&lt;/b&gt;" style="rounded=1;whiteSpace=wrap;html=1;fillColor=#fff2cc;strokeColor=#d6b656;" parent="1" vertex="1">
          <mxGeometry x="364" y="224" width="126" height="70" as="geometry" />
        </mxCell>
        <mxCell id="uTUz2dnG5HgmsUnSwUd8-10" value="&lt;b&gt;&lt;font style=&quot;font-size: 18px;&quot;&gt;Feature Selection&lt;/font&gt;&lt;/b&gt;" style="rounded=1;whiteSpace=wrap;html=1;fillColor=#fff2cc;strokeColor=#d6b656;" parent="1" vertex="1">
          <mxGeometry x="527" y="221" width="120" height="70" as="geometry" />
        </mxCell>
        <mxCell id="uTUz2dnG5HgmsUnSwUd8-11" value="&lt;b&gt;&lt;font style=&quot;font-size: 18px;&quot;&gt;Data Set Laberling&lt;/font&gt;&lt;/b&gt;" style="rounded=1;whiteSpace=wrap;html=1;fillColor=#fff2cc;strokeColor=#d6b656;" parent="1" vertex="1">
          <mxGeometry x="726" y="220" width="120" height="74" as="geometry" />
        </mxCell>
        <mxCell id="uTUz2dnG5HgmsUnSwUd8-12" value="&lt;b&gt;&lt;font style=&quot;font-size: 18px;&quot;&gt;Split the Data Train and Test set&lt;/font&gt;&lt;/b&gt;" style="rounded=1;whiteSpace=wrap;html=1;fillColor=#fff2cc;strokeColor=#d6b656;" parent="1" vertex="1">
          <mxGeometry x="916" y="221" width="174" height="70" as="geometry" />
        </mxCell>
        <mxCell id="uTUz2dnG5HgmsUnSwUd8-13" value="" style="rounded=1;whiteSpace=wrap;html=1;" parent="1" vertex="1">
          <mxGeometry x="175" y="169" width="155" height="180" as="geometry" />
        </mxCell>
        <mxCell id="uTUz2dnG5HgmsUnSwUd8-14" value="&lt;b&gt;&lt;font style=&quot;font-size: 16px;&quot;&gt;Data Cleaning&lt;/font&gt;&lt;/b&gt;" style="rounded=1;whiteSpace=wrap;html=1;fillColor=#dae8fc;strokeColor=#6c8ebf;" parent="1" vertex="1">
          <mxGeometry x="187.5" y="194" width="132.5" height="40" as="geometry" />
        </mxCell>
        <mxCell id="uTUz2dnG5HgmsUnSwUd8-15" value="&lt;b&gt;&lt;font style=&quot;font-size: 16px;&quot;&gt;Normalization&lt;/font&gt;&lt;/b&gt;" style="rounded=1;whiteSpace=wrap;html=1;fillColor=#dae8fc;strokeColor=#6c8ebf;" parent="1" vertex="1">
          <mxGeometry x="187" y="244" width="133" height="40" as="geometry" />
        </mxCell>
        <mxCell id="uTUz2dnG5HgmsUnSwUd8-16" value="&lt;b&gt;&lt;font style=&quot;font-size: 15px;&quot;&gt;Handeling Missing Value&lt;/font&gt;&lt;/b&gt;" style="rounded=1;whiteSpace=wrap;html=1;fillColor=#dae8fc;strokeColor=#6c8ebf;" parent="1" vertex="1">
          <mxGeometry x="189" y="294" width="131" height="40" as="geometry" />
        </mxCell>
        <mxCell id="uTUz2dnG5HgmsUnSwUd8-23" value="" style="rounded=1;whiteSpace=wrap;html=1;" parent="1" vertex="1">
          <mxGeometry x="390" y="584" width="358" height="106" as="geometry" />
        </mxCell>
        <mxCell id="uTUz2dnG5HgmsUnSwUd8-25" value="&lt;b&gt;&lt;font style=&quot;font-size: 18px;&quot;&gt;Based On Accuracy,Precision ,Reacll , F1&lt;/font&gt;&lt;/b&gt;" style="rounded=1;whiteSpace=wrap;html=1;fillColor=#d5e8d4;strokeColor=#82b366;" parent="1" vertex="1">
          <mxGeometry x="400" y="619" width="338" height="60" as="geometry" />
        </mxCell>
        <mxCell id="uTUz2dnG5HgmsUnSwUd8-26" value="&lt;b&gt;&lt;font style=&quot;font-size: 20px;&quot;&gt;Evaluate Model&lt;/font&gt;&lt;/b&gt;" style="text;html=1;align=center;verticalAlign=middle;whiteSpace=wrap;rounded=0;" parent="1" vertex="1">
          <mxGeometry x="488" y="585" width="175" height="34" as="geometry" />
        </mxCell>
        <mxCell id="uTUz2dnG5HgmsUnSwUd8-27" value="" style="shape=flexArrow;endArrow=classic;html=1;rounded=0;exitX=0;exitY=0.5;exitDx=0;exitDy=0;entryX=1.053;entryY=0.6;entryDx=0;entryDy=0;entryPerimeter=0;fillColor=#d5e8d4;strokeColor=#82b366;" parent="1" source="uTUz2dnG5HgmsUnSwUd8-1" target="uTUz2dnG5HgmsUnSwUd8-6" edge="1">
          <mxGeometry width="50" height="50" relative="1" as="geometry">
            <mxPoint x="650" y="270" as="sourcePoint" />
            <mxPoint x="700" y="220" as="targetPoint" />
          </mxGeometry>
        </mxCell>
        <mxCell id="uTUz2dnG5HgmsUnSwUd8-29" value="" style="shape=flexArrow;endArrow=classic;html=1;rounded=0;exitX=1;exitY=0.5;exitDx=0;exitDy=0;entryX=0;entryY=0.5;entryDx=0;entryDy=0;fillColor=#dae8fc;strokeColor=#6c8ebf;" parent="1" source="uTUz2dnG5HgmsUnSwUd8-13" target="uTUz2dnG5HgmsUnSwUd8-9" edge="1">
          <mxGeometry width="50" height="50" relative="1" as="geometry">
            <mxPoint x="650" y="234" as="sourcePoint" />
            <mxPoint x="700" y="184" as="targetPoint" />
          </mxGeometry>
        </mxCell>
        <mxCell id="uTUz2dnG5HgmsUnSwUd8-30" value="" style="rounded=1;whiteSpace=wrap;html=1;" parent="1" vertex="1">
          <mxGeometry x="503.5" y="329" width="145.5" height="130" as="geometry" />
        </mxCell>
        <mxCell id="uTUz2dnG5HgmsUnSwUd8-31" value="&lt;b&gt;&lt;font style=&quot;font-size: 19px;&quot;&gt;XGBoost&lt;/font&gt;&lt;/b&gt;" style="rounded=1;whiteSpace=wrap;html=1;fillColor=#dae8fc;strokeColor=#6c8ebf;" parent="1" vertex="1">
          <mxGeometry x="516" y="344" width="120" height="31" as="geometry" />
        </mxCell>
        <mxCell id="uTUz2dnG5HgmsUnSwUd8-32" value="&lt;b&gt;&lt;font style=&quot;font-size: 17px;&quot;&gt;ANOVA F-Test&lt;/font&gt;&lt;/b&gt;" style="rounded=1;whiteSpace=wrap;html=1;fillColor=#dae8fc;strokeColor=#6c8ebf;" parent="1" vertex="1">
          <mxGeometry x="513.5" y="384" width="125.5" height="30" as="geometry" />
        </mxCell>
        <mxCell id="uTUz2dnG5HgmsUnSwUd8-33" value="&lt;b&gt;&lt;font style=&quot;font-size: 19px;&quot;&gt;REF&lt;/font&gt;&lt;/b&gt;" style="rounded=1;whiteSpace=wrap;html=1;fillColor=#dae8fc;strokeColor=#6c8ebf;" parent="1" vertex="1">
          <mxGeometry x="513.5" y="424" width="125.5" height="30" as="geometry" />
        </mxCell>
        <mxCell id="uTUz2dnG5HgmsUnSwUd8-35" value="" style="rounded=0;whiteSpace=wrap;html=1;" parent="1" vertex="1">
          <mxGeometry x="170" y="474" width="860" height="80" as="geometry" />
        </mxCell>
        <mxCell id="uTUz2dnG5HgmsUnSwUd8-36" value="&lt;b&gt;&lt;font style=&quot;font-size: 26px;&quot;&gt;SVM&lt;/font&gt;&lt;/b&gt;" style="rounded=1;whiteSpace=wrap;html=1;fillColor=#dae8fc;strokeColor=#6c8ebf;" parent="1" vertex="1">
          <mxGeometry x="205" y="484" width="115" height="60" as="geometry" />
        </mxCell>
        <mxCell id="uTUz2dnG5HgmsUnSwUd8-37" value="&lt;b&gt;&lt;font style=&quot;font-size: 19px;&quot;&gt;Random Forest&lt;/font&gt;&lt;/b&gt;" style="rounded=1;whiteSpace=wrap;html=1;fillColor=#dae8fc;strokeColor=#6c8ebf;" parent="1" vertex="1">
          <mxGeometry x="363" y="484" width="117" height="60" as="geometry" />
        </mxCell>
        <mxCell id="uTUz2dnG5HgmsUnSwUd8-38" value="&lt;b&gt;&lt;font style=&quot;font-size: 21px;&quot;&gt;Decision Tree&lt;/font&gt;&lt;/b&gt;" style="rounded=1;whiteSpace=wrap;html=1;fillColor=#dae8fc;strokeColor=#6c8ebf;" parent="1" vertex="1">
          <mxGeometry x="529" y="484" width="133" height="60" as="geometry" />
        </mxCell>
        <mxCell id="uTUz2dnG5HgmsUnSwUd8-39" value="&lt;b&gt;&lt;font style=&quot;font-size: 20px;&quot;&gt;Logistics Regression&lt;/font&gt;&lt;/b&gt;" style="rounded=1;whiteSpace=wrap;html=1;fillColor=#dae8fc;strokeColor=#6c8ebf;" parent="1" vertex="1">
          <mxGeometry x="700" y="488" width="120" height="56" as="geometry" />
        </mxCell>
        <mxCell id="uTUz2dnG5HgmsUnSwUd8-40" value="&lt;b&gt;&lt;font style=&quot;font-size: 20px;&quot;&gt;XGBoost&lt;/font&gt;&lt;/b&gt;" style="rounded=1;whiteSpace=wrap;html=1;fillColor=#dae8fc;strokeColor=#6c8ebf;" parent="1" vertex="1">
          <mxGeometry x="870" y="484" width="120" height="60" as="geometry" />
        </mxCell>
        <mxCell id="uTUz2dnG5HgmsUnSwUd8-41" value="" style="shape=flexArrow;endArrow=classic;html=1;rounded=0;exitX=0.5;exitY=0;exitDx=0;exitDy=0;entryX=0.403;entryY=0.989;entryDx=0;entryDy=0;entryPerimeter=0;fillColor=#dae8fc;strokeColor=#6c8ebf;" parent="1" source="uTUz2dnG5HgmsUnSwUd8-30" target="uTUz2dnG5HgmsUnSwUd8-10" edge="1">
          <mxGeometry width="50" height="50" relative="1" as="geometry">
            <mxPoint x="670" y="274" as="sourcePoint" />
            <mxPoint x="720" y="224" as="targetPoint" />
          </mxGeometry>
        </mxCell>
        <mxCell id="uTUz2dnG5HgmsUnSwUd8-42" value="" style="endArrow=classic;html=1;rounded=0;exitX=1;exitY=0.5;exitDx=0;exitDy=0;entryX=0;entryY=0.5;entryDx=0;entryDy=0;strokeWidth=3;" parent="1" source="uTUz2dnG5HgmsUnSwUd8-9" target="uTUz2dnG5HgmsUnSwUd8-10" edge="1">
          <mxGeometry width="50" height="50" relative="1" as="geometry">
            <mxPoint x="670" y="274" as="sourcePoint" />
            <mxPoint x="720" y="224" as="targetPoint" />
          </mxGeometry>
        </mxCell>
        <mxCell id="uTUz2dnG5HgmsUnSwUd8-43" value="" style="endArrow=classic;html=1;rounded=0;entryX=0;entryY=0.5;entryDx=0;entryDy=0;strokeWidth=3;exitX=1;exitY=0.5;exitDx=0;exitDy=0;" parent="1" source="uTUz2dnG5HgmsUnSwUd8-10" target="uTUz2dnG5HgmsUnSwUd8-11" edge="1">
          <mxGeometry width="50" height="50" relative="1" as="geometry">
            <mxPoint x="677" y="259" as="sourcePoint" />
            <mxPoint x="737" y="224" as="targetPoint" />
          </mxGeometry>
        </mxCell>
        <mxCell id="uTUz2dnG5HgmsUnSwUd8-44" value="" style="endArrow=classic;html=1;rounded=0;exitX=1;exitY=0.5;exitDx=0;exitDy=0;entryX=0;entryY=0.5;entryDx=0;entryDy=0;strokeWidth=3;" parent="1" source="uTUz2dnG5HgmsUnSwUd8-11" target="uTUz2dnG5HgmsUnSwUd8-12" edge="1">
          <mxGeometry width="50" height="50" relative="1" as="geometry">
            <mxPoint x="661" y="274" as="sourcePoint" />
            <mxPoint x="711" y="224" as="targetPoint" />
          </mxGeometry>
        </mxCell>
        <mxCell id="uTUz2dnG5HgmsUnSwUd8-45" value="" style="endArrow=classic;html=1;rounded=0;exitX=0.5;exitY=1;exitDx=0;exitDy=0;strokeWidth=3;" parent="1" source="uTUz2dnG5HgmsUnSwUd8-12" edge="1">
          <mxGeometry width="50" height="50" relative="1" as="geometry">
            <mxPoint x="670" y="274" as="sourcePoint" />
            <mxPoint x="718" y="474" as="targetPoint" />
            <Array as="points">
              <mxPoint x="1003" y="330" />
              <mxPoint x="720" y="330" />
            </Array>
          </mxGeometry>
        </mxCell>
        <mxCell id="uTUz2dnG5HgmsUnSwUd8-46" value="" style="endArrow=classic;html=1;rounded=0;exitX=0.872;exitY=1.029;exitDx=0;exitDy=0;entryX=1;entryY=0.5;entryDx=0;entryDy=0;strokeWidth=3;exitPerimeter=0;" parent="1" source="uTUz2dnG5HgmsUnSwUd8-12" target="uTUz2dnG5HgmsUnSwUd8-23" edge="1">
          <mxGeometry width="50" height="50" relative="1" as="geometry">
            <mxPoint x="670" y="274" as="sourcePoint" />
            <mxPoint x="720" y="224" as="targetPoint" />
            <Array as="points">
              <mxPoint x="1070" y="634" />
            </Array>
          </mxGeometry>
        </mxCell>
        <mxCell id="uTUz2dnG5HgmsUnSwUd8-47" value="" style="endArrow=classic;html=1;rounded=0;exitX=0.482;exitY=1.032;exitDx=0;exitDy=0;exitPerimeter=0;entryX=0.63;entryY=0.002;entryDx=0;entryDy=0;strokeWidth=3;entryPerimeter=0;" parent="1" source="uTUz2dnG5HgmsUnSwUd8-6" target="uTUz2dnG5HgmsUnSwUd8-9" edge="1">
          <mxGeometry width="50" height="50" relative="1" as="geometry">
            <mxPoint x="670" y="230" as="sourcePoint" />
            <mxPoint x="720" y="180" as="targetPoint" />
          </mxGeometry>
        </mxCell>
        <mxCell id="uTUz2dnG5HgmsUnSwUd8-48" value="&lt;b&gt;&lt;font style=&quot;font-size: 18px;&quot;&gt;Chose The Best Model&lt;/font&gt;&lt;/b&gt;" style="rounded=1;whiteSpace=wrap;html=1;fillColor=#fff2cc;strokeColor=#d6b656;" parent="1" vertex="1">
          <mxGeometry x="473" y="733" width="225" height="70" as="geometry" />
        </mxCell>
        <mxCell id="uTUz2dnG5HgmsUnSwUd8-49" value="" style="endArrow=classic;html=1;rounded=0;exitX=0.511;exitY=1;exitDx=0;exitDy=0;strokeWidth=3;entryX=0.439;entryY=0.079;entryDx=0;entryDy=0;entryPerimeter=0;exitPerimeter=0;" parent="1" source="uTUz2dnG5HgmsUnSwUd8-23" target="uTUz2dnG5HgmsUnSwUd8-48" edge="1">
          <mxGeometry width="50" height="50" relative="1" as="geometry">
            <mxPoint x="593" y="690.0000000000002" as="sourcePoint" />
            <mxPoint x="596" y="730" as="targetPoint" />
          </mxGeometry>
        </mxCell>
        <mxCell id="uTUz2dnG5HgmsUnSwUd8-50" value="&lt;span style=&quot;font-size: 20px;&quot;&gt;&lt;b&gt;Input Data From Prometheous Matrix&lt;/b&gt;&lt;/span&gt;" style="rounded=1;whiteSpace=wrap;html=1;fillColor=#dae8fc;strokeColor=#6c8ebf;" parent="1" vertex="1">
          <mxGeometry x="137.5" y="738" width="197.5" height="60" as="geometry" />
        </mxCell>
        <mxCell id="uTUz2dnG5HgmsUnSwUd8-51" value="&lt;b&gt;&lt;font style=&quot;font-size: 20px;&quot;&gt;Faulty&lt;/font&gt;&lt;/b&gt;" style="rounded=1;whiteSpace=wrap;html=1;fillColor=#a20025;strokeColor=#6F0000;fontColor=#ffffff;" parent="1" vertex="1">
          <mxGeometry x="830" y="667" width="100" height="41" as="geometry" />
        </mxCell>
        <mxCell id="uTUz2dnG5HgmsUnSwUd8-52" value="&lt;b&gt;&lt;font style=&quot;font-size: 20px;&quot;&gt;Healthy&lt;/font&gt;&lt;/b&gt;" style="rounded=1;whiteSpace=wrap;html=1;fillColor=#60a917;strokeColor=#2D7600;fontColor=#ffffff;" parent="1" vertex="1">
          <mxGeometry x="830" y="785" width="100" height="44" as="geometry" />
        </mxCell>
        <mxCell id="uTUz2dnG5HgmsUnSwUd8-53" value="" style="endArrow=none;html=1;rounded=0;strokeWidth=3;" parent="1" edge="1">
          <mxGeometry width="50" height="50" relative="1" as="geometry">
            <mxPoint x="770" y="806" as="sourcePoint" />
            <mxPoint x="770" y="690" as="targetPoint" />
          </mxGeometry>
        </mxCell>
        <mxCell id="uTUz2dnG5HgmsUnSwUd8-54" value="" style="endArrow=classic;html=1;rounded=0;entryX=0;entryY=0.5;entryDx=0;entryDy=0;strokeWidth=3;" parent="1" target="uTUz2dnG5HgmsUnSwUd8-51" edge="1">
          <mxGeometry width="50" height="50" relative="1" as="geometry">
            <mxPoint x="770" y="688" as="sourcePoint" />
            <mxPoint x="730" y="576" as="targetPoint" />
          </mxGeometry>
        </mxCell>
        <mxCell id="uTUz2dnG5HgmsUnSwUd8-55" value="" style="endArrow=classic;html=1;rounded=0;entryX=0;entryY=0.5;entryDx=0;entryDy=0;strokeWidth=3;" parent="1" target="uTUz2dnG5HgmsUnSwUd8-52" edge="1">
          <mxGeometry width="50" height="50" relative="1" as="geometry">
            <mxPoint x="770" y="806" as="sourcePoint" />
            <mxPoint x="730" y="576" as="targetPoint" />
          </mxGeometry>
        </mxCell>
        <mxCell id="uTUz2dnG5HgmsUnSwUd8-56" value="" style="endArrow=classic;html=1;rounded=0;exitX=1;exitY=0.5;exitDx=0;exitDy=0;strokeWidth=3;" parent="1" source="uTUz2dnG5HgmsUnSwUd8-48" edge="1">
          <mxGeometry width="50" height="50" relative="1" as="geometry">
            <mxPoint x="680" y="630" as="sourcePoint" />
            <mxPoint x="770" y="770" as="targetPoint" />
          </mxGeometry>
        </mxCell>
        <mxCell id="uTUz2dnG5HgmsUnSwUd8-57" value="" style="endArrow=classic;html=1;rounded=0;exitX=1;exitY=0.5;exitDx=0;exitDy=0;strokeWidth=3;" parent="1" source="uTUz2dnG5HgmsUnSwUd8-50" target="uTUz2dnG5HgmsUnSwUd8-48" edge="1">
          <mxGeometry width="50" height="50" relative="1" as="geometry">
            <mxPoint x="685" y="630" as="sourcePoint" />
            <mxPoint x="735" y="580" as="targetPoint" />
          </mxGeometry>
        </mxCell>
        <mxCell id="uTUz2dnG5HgmsUnSwUd8-58" value="" style="endArrow=classic;html=1;rounded=0;entryX=0.5;entryY=0;entryDx=0;entryDy=0;exitX=0.472;exitY=0.987;exitDx=0;exitDy=0;exitPerimeter=0;strokeWidth=3;" parent="1" source="uTUz2dnG5HgmsUnSwUd8-35" target="uTUz2dnG5HgmsUnSwUd8-26" edge="1">
          <mxGeometry width="50" height="50" relative="1" as="geometry">
            <mxPoint x="585" y="553" as="sourcePoint" />
            <mxPoint x="720" y="580" as="targetPoint" />
          </mxGeometry>
        </mxCell>
        <mxCell id="uTUz2dnG5HgmsUnSwUd8-59" value="&lt;b&gt;&lt;font style=&quot;font-size: 20px;&quot;&gt;Warnning&lt;/font&gt;&lt;/b&gt;" style="rounded=1;whiteSpace=wrap;html=1;fillColor=#f0a30a;strokeColor=#BD7000;fontColor=#000000;" parent="1" vertex="1">
          <mxGeometry x="830" y="723" width="100" height="44" as="geometry" />
        </mxCell>
        <mxCell id="uTUz2dnG5HgmsUnSwUd8-60" value="" style="endArrow=classic;html=1;rounded=0;entryX=0;entryY=0.5;entryDx=0;entryDy=0;strokeWidth=3;" parent="1" target="uTUz2dnG5HgmsUnSwUd8-59" edge="1">
          <mxGeometry width="50" height="50" relative="1" as="geometry">
            <mxPoint x="770" y="745" as="sourcePoint" />
            <mxPoint x="720" y="690" as="targetPoint" />
          </mxGeometry>
        </mxCell>
      </root>
    </mxGraphModel>
  </diagram>
</mxfile>
